<svg width="1000" height="452" viewBox="0 0 1000 452" fill="none" xmlns="http://www.w3.org/2000/svg">
<path d="M230.92 335.055C338.273 367.481 451.243 317.801 502.178 222.315L498.751 221.28C448.423 314.918 337.429 363.558 231.935 331.694C161.205 310.33 108.455 257.472 84.36 193.053C65.1858 149.556 67.4306 91 67.4306 91C56.9884 198.717 123.554 302.625 230.92 335.055Z" fill="#C3937C"/>
<path d="M492.378 229.018C483.59 247.72 459.935 262.118 439.806 264.775C427.303 266.421 414.59 263.734 402.453 260.904C390.603 258.109 378.925 254.63 367.478 250.485C365.704 249.845 364.866 252.645 366.633 253.282C379.867 258.081 393.411 261.978 407.172 264.947C418.755 267.423 430.776 269.314 442.575 267.304C462.687 263.812 485.987 249.446 494.841 230.598C495.631 228.916 493.171 227.331 492.371 229.043L492.378 229.018Z" fill="#C3937C"/>
<path d="M493.209 227.066C469.654 218.701 443.909 214.571 419.101 219.331C398.265 223.322 379.853 234.413 365.707 250.088C364.458 251.479 366.437 253.631 367.702 252.231C381.541 236.864 399.383 226.084 419.787 222.177C444.09 217.513 469.294 221.673 492.364 229.863C494.139 230.496 494.98 227.69 493.209 227.066Z" fill="#C3937C"/>
<path d="M491.309 229.337C464.374 254.687 425.628 263.58 389.669 257.768C388.386 257.56 387.76 259.519 389.076 259.73C425.76 265.657 465.194 256.723 492.705 230.836C492.904 230.651 493.021 230.394 493.03 230.123C493.04 229.851 492.941 229.586 492.756 229.388C492.571 229.189 492.314 229.072 492.043 229.062C491.772 229.053 491.507 229.152 491.309 229.337Z" fill="#C3937C"/>
<path d="M490.945 227.528L432.633 243.656C423.208 246.259 413.78 248.964 404.348 251.454C393.849 254.23 382.621 256.316 372.494 251.102C371.298 250.492 370.233 252.235 371.402 252.844C388.45 261.62 409.557 252.164 426.503 247.482L491.425 229.524C492.69 229.174 492.222 227.182 490.943 227.534L490.945 227.528Z" fill="#C3937C"/>
<path d="M489.2 228.141C466.536 217.351 438.188 220.766 415.225 228.942C406.643 232 398.386 236.102 390.04 239.749C382.189 243.172 373.712 246.2 366.399 250.718C365.286 251.411 366.244 253.22 367.372 252.525C373.897 248.487 381.433 245.721 388.432 242.675C396.016 239.358 403.53 235.749 411.2 232.651C434.516 223.234 464.637 218.705 488.11 229.877C489.285 230.439 490.388 228.707 489.202 228.135L489.2 228.141Z" fill="#C3937C"/>
<path d="M489.063 226.242C468.741 224.489 447.28 226.848 428.094 233.921C408.908 240.993 389.622 252.691 368.344 250.836C367.001 250.714 366.98 252.773 368.289 252.892C387.939 254.586 406.08 244.898 423.773 237.789C444.488 229.585 466.828 226.335 489.014 228.299C490.326 228.412 490.373 226.361 489.069 226.244L489.063 226.242Z" fill="#C3937C"/>
<path d="M489.926 245.545C492.503 269.27 492.353 293.215 489.477 316.91C487.944 329.453 485.446 342.042 477.167 352.023C469.864 360.827 459.912 366.841 450.227 372.681C448.622 373.653 449.995 376.237 451.608 375.26C461.278 369.423 471.206 363.394 478.679 354.759C486.409 345.821 489.742 334.879 491.515 323.41C495.533 297.5 495.529 270.9 492.728 244.879C492.525 243.015 489.68 243.709 489.878 245.565L489.926 245.545Z" fill="#C3937C"/>
<path d="M451.553 373.931C454.048 349.819 454.376 325.295 459.049 301.462C463.027 281.189 472.517 258.086 492.434 248.865C494.151 248.071 492.758 245.509 491.054 246.286C471.93 255.139 461.699 276.63 457.203 296.152C451.353 321.529 451.306 348.024 448.635 373.837C448.443 375.706 451.369 375.775 451.561 373.906L451.553 373.931Z" fill="#C3937C"/>
<path d="M489.115 249.872C486.372 289.014 474.722 325.141 451.284 356.845C450.501 357.907 452.236 358.99 453.024 357.937C476.667 325.964 488.41 289.395 491.168 249.926C491.261 248.614 489.214 248.562 489.115 249.872Z" fill="#C3937C"/>
<path d="M490.375 247.849C488.171 274.563 486.972 301.628 480.68 327.804C478.667 336.447 474.916 344.59 469.656 351.736C464.571 358.841 458.708 366.671 451.313 371.551C450.22 372.271 451.182 374.088 452.279 373.356C458.968 368.939 464.291 362.258 469.099 355.933C474.585 348.715 479.265 341.35 481.594 332.543C488.888 304.97 490.083 276.204 492.42 247.908C492.537 246.561 490.478 246.547 490.365 247.86L490.375 247.849Z" fill="#C3937C"/>
<path d="M488.116 251.214C472.768 282.108 457.811 314.266 451.564 348.427C451.321 349.734 453.281 350.327 453.524 349.019C459.738 315.035 474.579 283.035 489.85 252.305C490.441 251.102 488.706 250.039 488.11 251.213L488.116 251.214Z" fill="#C3937C"/>
<path d="M433.271 302.33C427.884 333.165 412.868 373.373 380.779 385.244C379.033 385.884 379.72 388.751 381.459 388.088C414.651 375.811 430.467 335.258 436.085 303.18C436.404 301.349 433.61 300.478 433.284 302.334L433.271 302.33Z" fill="#C3937C"/>
<path d="M382.89 385.861C385.139 369.243 390.91 353.295 399.816 339.087C408.722 324.879 420.559 312.738 434.532 303.478C436.094 302.443 434.721 299.86 433.152 300.899C418.74 310.425 406.536 322.932 397.361 337.577C388.186 352.221 382.254 368.663 379.965 385.793C379.718 387.659 382.646 387.721 382.89 385.861Z" fill="#C3937C"/>
<path d="M429.961 305.889C420.823 335.412 409.218 365.675 381.738 382.778C380.623 383.477 381.581 385.286 382.704 384.582C410.667 367.183 422.612 336.546 431.921 306.481C432 306.22 431.972 305.94 431.843 305.7C431.715 305.461 431.497 305.282 431.237 305.204C430.977 305.125 430.697 305.153 430.457 305.282C430.218 305.41 430.039 305.628 429.961 305.889Z" fill="#C3937C"/>
<path d="M428.242 306.986C415.979 327.094 401.919 346.048 386.235 363.616C385.36 364.595 386.748 366.098 387.625 365.113C403.434 347.426 417.606 328.338 429.966 308.086C430.657 306.962 428.925 305.866 428.228 306.988L428.242 306.986Z" fill="#C3937C"/>
<path d="M428.24 307.199C424.094 319.83 417.795 331.796 411.053 343.222C404.223 354.8 396.545 368.408 383.968 374.41C382.775 374.982 383.749 376.782 384.934 376.215C397.355 370.297 405.052 357.24 411.889 345.843C419.092 333.832 425.811 321.157 430.186 307.815C430.6 306.558 428.672 305.976 428.232 307.224L428.24 307.199Z" fill="#C3937C"/>
<path d="M440.662 289.077C424.11 301.658 404.042 308.74 383.271 309.33C372.649 309.616 362.38 307.93 352.156 305.139C341.746 302.299 331.51 299.179 320.595 299.75C318.728 299.877 318.636 302.785 320.524 302.678C333.739 301.966 345.887 306.886 358.551 309.778C368.396 312.027 378.527 312.758 388.594 311.946C408.224 310.354 426.987 303.155 442.655 291.205C444.152 290.062 442.153 287.932 440.668 289.058L440.662 289.077Z" fill="#C3937C"/>
<path d="M440.185 288.601C419.708 281.214 398.063 273.516 375.938 275.812C355.656 277.926 336.415 286.529 320.593 299.252C319.12 300.431 321.123 302.569 322.582 301.394C338.328 288.737 357.971 280.014 378.257 278.53C399.339 276.989 419.832 284.367 439.34 291.399C441.113 292.038 441.952 289.238 440.185 288.601Z" fill="#C3937C"/>
<path d="M437.718 288.588C402.179 295.273 363.893 302.282 327.953 295.08C326.652 294.818 326.059 296.78 327.36 297.042C363.691 304.32 402.294 297.338 438.194 290.576C439.489 290.332 439.013 288.344 437.718 288.588Z" fill="#C3937C"/>
<path d="M439.557 290.29C426.96 298.075 409.824 299.64 395.356 301.349C380.149 303.151 364.841 303.942 349.537 304.397C348.228 304.436 348.169 306.484 349.489 306.454C364.967 305.991 380.45 305.169 395.83 303.343C410.499 301.606 427.702 300.026 440.528 292.103C441.639 291.416 440.681 289.608 439.555 290.297L439.557 290.29Z" fill="#C3937C"/>
<path d="M434.503 287.811C400.954 283.293 367.059 292.85 333.36 290.656C332.048 290.57 331.994 292.619 333.305 292.711C367.01 294.907 400.905 285.35 434.448 289.866C435.772 290.052 435.794 287.993 434.503 287.811Z" fill="#C3937C"/>
<path d="M413.841 281.473C392.906 282.892 371.882 282.344 350.918 282.214C349.603 282.204 349.544 284.251 350.863 284.269C371.837 284.388 392.851 284.948 413.786 283.528C415.09 283.439 415.124 281.384 413.841 281.473Z" fill="#C3937C"/>
<path d="M374.307 332.385C371.439 349.304 364.526 365.886 355.098 380.195C345.614 394.597 328.625 400.427 312.845 405.11C311.048 405.644 311.72 408.493 313.531 407.955C328.795 403.428 345.469 397.841 355.525 384.675C366.558 370.236 374.089 351.037 377.108 333.231C377.413 331.396 374.618 330.531 374.307 332.385Z" fill="#C3937C"/>
<path d="M374.728 331.034C365.647 335.972 355.372 338.235 346.528 343.645C340.489 347.377 335.13 352.111 330.68 357.645C319.419 371.511 314.051 389.008 311.409 406.389C311.125 408.244 314.053 408.306 314.333 406.464C316.954 389.242 322.444 371.685 333.95 358.239C338.631 352.716 344.289 348.103 350.639 344.631C358.817 340.194 367.945 338.026 376.117 333.588C377.764 332.704 376.395 330.108 374.736 331.009L374.728 331.034Z" fill="#C3937C"/>
<path d="M310.74 342.38C297.387 356.457 283.066 371.547 264.138 377.744C243.967 384.354 222.615 378.927 203.192 372.417C201.407 371.816 200.56 374.62 202.345 375.221C222.226 381.883 244.186 387.328 264.815 380.594C284.291 374.231 298.991 359.007 312.727 344.528C314.022 343.165 312.037 341.011 310.74 342.38Z" fill="#C3937C"/>
<path d="M311.243 341.655C272.813 339.862 233.52 349.84 201.993 372.276C200.479 373.359 201.843 375.947 203.371 374.861C234.531 352.681 273.186 342.807 311.189 344.574C313.066 344.665 313.15 341.713 311.259 341.646L311.243 341.655Z" fill="#C3937C"/>
<path d="M349.802 335.136C327.481 339.363 299.692 334.277 282.028 319.431C275.548 314.02 270.678 307.024 265.056 300.76C257.747 292.745 249.1 286.064 239.501 281.016C237.848 280.137 236.262 282.601 237.938 283.494C248.475 289.109 257.849 296.675 265.565 305.79C271.443 312.67 276.921 319.774 284.462 324.939C302.92 337.594 328.643 342.117 350.49 337.976C352.336 337.622 351.656 334.778 349.806 335.124L349.802 335.136Z" fill="#C3937C"/>
<path d="M353.053 334.813C350.805 329.12 344.857 324.553 340.327 320.774C331.218 313.282 321.448 306.632 311.138 300.907C289.723 288.816 264.303 277.899 239.18 280.022C237.333 280.154 237.227 283.106 239.11 282.95C263.717 280.864 288.602 291.544 309.576 303.384C319.056 308.662 328.09 314.706 336.588 321.455C341.397 325.318 348.113 330.199 350.473 336.182C351.166 337.931 353.735 336.532 353.051 334.799L353.053 334.813Z" fill="#C3937C"/>
<path d="M236.661 334.323C197.645 358.848 150.968 342.283 115.261 320.033C113.657 319.037 112.101 321.516 113.698 322.51C150.284 345.302 198.165 361.968 238.042 336.902C239.633 335.905 238.261 333.321 236.661 334.323Z" fill="#C3937C"/>
<path d="M237.544 334.459C214.483 324.917 190.413 317.867 166.259 311.691C148.519 307.147 128.022 306.496 113.459 319.599C112.057 320.861 114.046 323.002 115.448 321.74C131.648 307.169 153.687 311.257 172.62 316.423C194.332 322.346 215.85 328.638 236.704 337.264C238.446 337.984 239.28 335.176 237.551 334.46L237.544 334.459Z" fill="#C3937C"/>
<path d="M261.185 337.151C259.139 300.382 222.697 283.034 192.485 272.196C190.712 271.557 189.871 274.363 191.64 274.994C220.406 285.319 256.276 301.797 258.246 337.079C258.372 338.947 261.271 339.035 261.166 337.145L261.185 337.151Z" fill="#C3937C"/>
<path d="M259.896 336.278C240.534 328.42 221.032 317.923 208.841 300.351C202.743 291.553 199.38 280.916 192.332 272.771C191.092 271.347 188.958 273.341 190.192 274.763C197.772 283.476 201.232 295.137 208.16 304.365C220.77 321.166 239.964 331.315 259.032 339.07C260.771 339.775 261.604 336.974 259.877 336.272L259.896 336.278Z" fill="#C3937C"/>
<path d="M156.37 293.032C144.962 293.454 133.205 293.908 122.098 290.816C114.549 288.716 109.219 285.075 103.402 280.141C93.3316 271.608 83.973 262.226 73.5374 254.081C72.0467 252.94 70.5071 255.41 71.9751 256.558C83.2677 265.384 93.3074 275.731 104.424 284.773C119.158 296.759 138.159 296.627 156.3 295.96C158.169 295.896 158.26 292.967 156.37 293.032Z" fill="#C3937C"/>
<path d="M156.651 292.032C133.5 271.063 104.496 257.678 73.5235 253.669C71.6632 253.432 71.5992 256.362 73.4532 256.597C103.65 260.535 131.925 273.591 154.511 294.024C155.898 295.279 158.049 293.297 156.651 292.032Z" fill="#C3937C"/>
<path d="M176.56 305.16C176.942 282.973 181.026 248.981 156.361 237.255C154.677 236.457 153.098 238.922 154.799 239.733C178.373 250.935 174.002 283.818 173.635 305.091C173.606 306.968 176.528 307.05 176.56 305.16Z" fill="#C3937C"/>
<path d="M175.568 304.218C159.915 287.237 152.245 262.169 156.856 239.387C157.229 237.559 154.433 236.694 154.055 238.541C149.241 262.359 157.027 288.416 173.428 306.21C174.706 307.598 176.847 305.606 175.568 304.218Z" fill="#C3937C"/>
<path d="M126.927 261.808C132.811 242.154 132.608 221.181 126.344 201.652C125.771 199.87 122.92 200.535 123.493 202.338C129.634 221.36 129.853 241.804 124.12 260.96C123.575 262.764 126.382 263.612 126.921 261.806L126.927 261.808Z" fill="#C3937C"/>
<path d="M125.172 259.531C111.12 242.798 111.294 219.243 125.17 202.43C126.368 200.975 123.88 199.436 122.695 200.868C115.588 209.392 111.721 220.156 111.778 231.255C111.835 242.354 115.812 253.073 123.007 261.515C124.226 262.961 126.362 260.961 125.154 259.525L125.172 259.531Z" fill="#C3937C"/>
<path d="M101.868 235.121C82.8155 232.888 64.7017 221.677 54.554 205.337C53.5666 203.74 50.9846 205.116 51.9764 206.721C62.713 224.012 81.6327 235.708 101.798 238.049C103.664 238.267 103.728 235.337 101.868 235.121Z" fill="#C3937C"/>
<path d="M102.862 234.185C97.2288 226.097 89.9586 219.286 81.5234 214.194C73.0882 209.102 63.6765 205.843 53.8991 204.628C52.0388 204.391 51.9748 207.321 53.8288 207.556C63.0967 208.727 72.0167 211.824 80.0167 216.648C88.0167 221.471 94.9203 227.916 100.285 235.568C101.356 237.093 103.944 235.72 102.862 234.185Z" fill="#C3937C"/>
<path d="M90.6253 205.092C96.7624 189.982 98.8398 172.596 91.6525 157.488C90.8418 155.786 88.2999 157.166 89.075 158.872C95.9292 173.278 93.6566 189.893 87.8243 204.246C87.1188 205.987 89.9218 206.827 90.6253 205.092Z" fill="#C3937C"/>
<path d="M90.1337 203.955C83.2229 190.285 82.8388 172.984 91.1306 159.81C92.1369 158.215 89.6606 156.659 88.6625 158.25C79.8 172.308 80.1867 190.742 87.5497 205.337C88.4186 207.029 90.9709 205.638 90.1273 203.953L90.1337 203.955Z" fill="#C3937C"/>
<path d="M373.177 334.295C354.625 358.28 334.818 381.267 313.841 403.159C312.934 404.107 314.322 405.611 315.231 404.656C336.319 382.63 356.23 359.504 374.88 335.376C375.684 334.334 373.948 333.251 373.14 334.284L373.177 334.295Z" fill="#C3937C"/>
<path d="M374.054 333.814C366.669 346.454 359.534 359.294 351.683 371.649C344.373 383.151 334.797 398.769 320.785 402.487C319.519 402.795 319.984 404.821 321.26 404.481C334.064 401.083 342.907 388.392 349.96 377.994C359.353 364.164 367.348 349.325 375.782 334.903C376.45 333.764 374.718 332.668 374.042 333.811L374.054 333.814Z" fill="#C3937C"/>
<path d="M371.069 339.447C366.294 360.535 351.963 377.459 339.868 394.775C339.112 395.859 340.846 396.949 341.606 395.873C353.82 378.393 368.224 361.318 373.036 340.041C373.33 338.748 371.37 338.156 371.082 339.451L371.069 339.447Z" fill="#C3937C"/>
<path d="M371.421 334.124C349.506 352.175 330.015 372.986 313.432 396.039C312.661 397.104 314.401 398.196 315.172 397.13C331.659 374.237 351.035 353.572 372.816 335.651C373.835 334.812 372.439 333.313 371.42 334.151L371.421 334.124Z" fill="#C3937C"/>
<path d="M365.773 337.018C349.085 345.992 334.26 358.069 322.092 372.601C321.259 373.6 322.645 375.11 323.488 374.101C335.534 359.693 350.217 347.718 366.747 338.818C366.866 338.754 366.971 338.668 367.056 338.563C367.141 338.459 367.204 338.338 367.243 338.209C367.282 338.08 367.295 337.945 367.281 337.811C367.267 337.677 367.228 337.547 367.164 337.428C367.1 337.309 367.013 337.205 366.909 337.119C366.805 337.034 366.684 336.971 366.555 336.932C366.427 336.893 366.291 336.881 366.157 336.894C366.023 336.908 365.893 336.948 365.775 337.012L365.773 337.018Z" fill="#C3937C"/>
<path d="M307.466 342.144C291.381 348.862 275.322 355.657 259.191 362.277C243.817 368.588 226.025 377.304 208.981 374.636C207.664 374.424 207.643 376.483 208.932 376.693C225.099 379.228 241.507 371.641 256.157 365.719C273.662 358.664 291.019 351.225 308.434 343.963C309.651 343.453 308.67 341.652 307.464 342.151L307.466 342.144Z" fill="#C3937C"/>
<path d="M299.625 345.053C287.47 350.339 275.879 356.839 265.027 364.454C253.817 372.348 241.826 381.393 227.26 379.404C225.936 379.218 225.915 381.277 227.211 381.461C240.168 383.227 251.724 376.398 261.881 369.202C274.175 360.483 286.816 352.898 300.589 346.864C301.797 346.337 300.824 344.531 299.623 345.059L299.625 345.053Z" fill="#C3937C"/>
<path d="M305.5 343.374L277.313 365.672C268.792 372.409 260.266 379.552 249.167 381.186C247.862 381.372 248.342 383.368 249.643 383.174C259.549 381.718 267.537 375.946 275.235 369.9C285.81 361.594 296.331 353.217 306.882 344.876C307.916 344.055 306.518 342.563 305.487 343.37L305.5 343.374Z" fill="#C3937C"/>
<path d="M300.226 343.383C267.272 350.006 235.701 361.668 204.272 373.386C203.052 373.839 203.531 375.842 204.755 375.376C236.182 363.664 267.742 352.013 300.706 345.379C301.998 345.121 301.518 343.124 300.226 343.383Z" fill="#C3937C"/>
<path d="M350.568 333.627C333.702 329.728 318.241 321.453 304.282 311.358C291.591 302.158 280.2 291.376 266.57 283.481C265.431 282.819 264.334 284.553 265.478 285.223C279.658 293.443 291.434 304.805 304.76 314.231C318.469 323.897 333.552 331.824 349.966 335.621C351.255 335.921 351.848 333.959 350.558 333.659L350.568 333.627Z" fill="#C3937C"/>
<path d="M349.943 334.737C328.58 330.467 308.89 320.134 290.625 308.532C274.95 298.589 259.764 286.916 241.577 281.975C240.301 281.631 239.709 283.593 240.985 283.937C260.279 289.185 276.07 302.077 292.849 312.339C310.383 323.071 329.053 332.627 349.354 336.687C350.655 336.948 351.248 334.986 349.947 334.724L349.943 334.737Z" fill="#C3937C"/>
<path d="M346.337 335.458C317.985 330.182 292.594 316.931 267.291 303.639C266.129 303.032 265.026 304.764 266.193 305.379C291.644 318.751 317.208 332.116 345.743 337.426C347.048 337.675 347.64 335.713 346.336 335.464L346.337 335.458Z" fill="#C3937C"/>
<path d="M337.554 337.308C316.329 331.325 295.452 324.418 276.018 313.831C274.87 313.201 273.767 314.933 274.926 315.573C294.515 326.242 315.557 333.24 336.959 339.276C338.224 339.658 338.822 337.677 337.552 337.314L337.554 337.308Z" fill="#C3937C"/>
<path d="M350.283 332.471C330.526 322.152 312.031 310.922 295.891 295.369C294.946 294.455 293.443 295.845 294.388 296.759C310.646 312.424 329.281 323.806 349.186 334.205C350.348 334.811 351.449 333.085 350.285 332.464L350.283 332.471Z" fill="#C3937C"/>
<path d="M258.541 334.481C242.314 313.833 222.388 296.389 199.781 283.04C198.644 282.372 197.556 284.102 198.689 284.782C221.141 298.042 240.929 315.369 257.043 335.879C257.86 336.92 259.354 335.514 258.54 334.487L258.541 334.481Z" fill="#C3937C"/>
<path d="M258.824 334.414C243.49 321.733 226.943 310.595 209.425 301.162C208.27 300.53 207.174 302.264 208.326 302.903C225.695 312.245 242.106 323.27 257.323 335.819C258.321 336.652 259.83 335.264 258.82 334.427L258.824 334.414Z" fill="#C3937C"/>
<path d="M256.616 334.825C244.948 324.476 230.634 316.948 216.722 310.101C215.551 309.526 214.45 311.252 215.624 311.841C229.356 318.6 243.601 326.011 255.123 336.204C256.102 337.073 257.605 335.683 256.622 334.806L256.616 334.825Z" fill="#C3937C"/>
<path d="M260.288 334.159C247.122 313.785 230.773 295.316 211.355 280.7C210.305 279.906 209.219 281.65 210.263 282.442C229.37 296.854 245.491 315.095 258.475 335.158C259.185 336.257 260.993 335.297 260.278 334.19L260.288 334.159Z" fill="#C3937C"/>
<path d="M233.614 333.603C213.526 333.634 193.37 335.192 173.309 333.512C153.761 331.869 134.851 326.24 116.293 320.13C115.029 319.748 114.455 321.647 115.703 322.086C133.744 328.033 152.145 333.543 171.119 335.371C191.904 337.374 212.761 335.689 233.559 335.659C234.878 335.656 234.937 333.609 233.614 333.603Z" fill="#C3937C"/>
<path d="M231.054 334.108C215.72 334.504 200.726 338.07 185.425 338.974C169.409 339.95 153.361 337.703 138.231 332.365C136.986 331.92 136.393 333.882 137.639 334.327C152.282 339.487 167.778 341.795 183.291 341.127C199.3 340.437 214.96 336.588 230.977 336.191C232.284 336.157 232.352 334.106 231.032 334.135L231.054 334.108Z" fill="#C3937C"/>
<path d="M234.744 334.068C223.827 337.479 212.697 340.163 201.427 342.101C189.414 344.226 177.286 345.681 165.246 342.915C163.955 342.621 163.362 344.584 164.653 344.877C175.759 347.423 186.919 346.546 198.069 344.741C210.649 342.756 223.068 339.854 235.226 336.058C236.471 335.661 236.005 333.662 234.746 334.062L234.744 334.068Z" fill="#C3937C"/>
<path d="M193.588 334.381C168.004 331.043 142.797 325.279 118.306 317.167C117.041 316.785 116.468 318.684 117.713 319.13C142.388 327.276 167.78 333.061 193.548 336.406C194.874 336.586 194.896 334.527 193.597 334.349L193.588 334.381Z" fill="#C3937C"/>
<path d="M213.575 333.863C196.99 328.943 180.213 324.705 163.355 320.849C149.402 317.657 135.075 313.689 120.648 315.63C119.346 315.803 119.829 317.793 121.13 317.62C136.507 315.551 152.147 320.33 166.994 323.786C182.426 327.383 197.784 331.317 212.982 335.825C213.242 335.904 213.522 335.876 213.762 335.747C214.001 335.619 214.18 335.4 214.259 335.14C214.337 334.88 214.309 334.599 214.181 334.36C214.053 334.12 213.835 333.942 213.575 333.863Z" fill="#C3937C"/>
<path d="M225.501 332.914C194.148 323.982 162.985 312.228 130.036 311.276C129.901 311.272 129.766 311.295 129.641 311.343C129.515 311.392 129.399 311.465 129.301 311.557C129.204 311.65 129.125 311.762 129.07 311.885C129.015 312.008 128.985 312.141 128.981 312.276C128.978 312.411 129.001 312.546 129.049 312.672C129.097 312.798 129.17 312.913 129.263 313.011C129.355 313.109 129.466 313.187 129.59 313.242C129.713 313.297 129.846 313.327 129.98 313.331C162.753 314.251 193.73 326.004 224.9 334.88C226.165 335.262 226.763 333.281 225.493 332.918L225.501 332.914Z" fill="#C3937C"/>
<path d="M153.904 291.693C129.197 283.83 105.372 274.188 82.5285 261.846C81.3404 261.21 80.2755 262.954 81.4301 263.586C104.422 276.008 128.427 285.738 153.31 293.661C154.574 294.043 155.161 292.1 153.902 291.699L153.904 291.693Z" fill="#C3937C"/>
<path d="M151.263 291.689C130.937 290.246 113.149 282.021 95.1434 273.101C93.94 272.517 92.8707 274.252 94.0513 274.844C112.375 283.922 130.523 292.277 151.21 293.738C152.527 293.832 152.572 291.788 151.265 291.683L151.263 291.689Z" fill="#C3937C"/>
<path d="M152.114 290.883C128.323 275.988 102.813 263.883 75.7173 256.321C74.4527 255.939 73.8523 257.926 75.1246 258.283C102.056 265.796 127.358 277.811 151.004 292.613C151.235 292.758 151.514 292.805 151.78 292.744C152.045 292.683 152.276 292.519 152.421 292.288C152.565 292.057 152.613 291.777 152.552 291.512C152.491 291.246 152.327 291.015 152.096 290.87L152.114 290.883Z" fill="#C3937C"/>
<path d="M145.647 290.843C132.835 290.585 119.567 288.574 107.744 283.469C106.521 282.948 105.929 284.91 107.151 285.431C119.104 290.589 132.646 292.628 145.604 292.902C145.739 292.905 145.873 292.881 145.999 292.833C146.125 292.784 146.24 292.711 146.338 292.617C146.535 292.429 146.65 292.17 146.656 291.897C146.663 291.624 146.561 291.36 146.373 291.163C146.184 290.965 145.926 290.851 145.653 290.844L145.647 290.843Z" fill="#C3937C"/>
<path d="M174.563 301.4C169 293.504 166.512 282.116 163.564 272.985C160.71 264.159 155.426 252.734 156.537 243.345C156.698 242.012 154.641 241.992 154.483 243.291C153.331 253.069 158.612 264.32 161.565 273.459C164.591 282.834 167.028 294.206 172.74 302.39C173.493 303.46 175.308 302.475 174.549 301.424L174.563 301.4Z" fill="#C3937C"/>
<path d="M174.794 301.228C170.825 280.607 173.603 254.916 156.084 239.52C155.102 238.657 153.599 240.047 154.587 240.912C171.796 256.056 168.891 281.39 172.793 301.708C173.044 303 175.037 302.524 174.788 301.226L174.794 301.228Z" fill="#C3937C"/>
<path d="M172.547 298.892C170.839 288.989 168.857 279.128 166.189 269.413C163.615 260.16 159.71 251.867 155.375 243.353C154.773 242.17 152.974 243.146 153.571 244.321C158.101 253.287 162.091 262.007 164.687 271.735C167.11 280.846 168.95 290.104 170.547 299.393C170.776 300.691 172.764 300.208 172.541 298.911L172.547 298.892Z" fill="#C3937C"/>
<path d="M100.562 234.671C87.9311 223.949 74.975 214.165 60.1352 206.574C58.9691 205.98 57.8726 207.714 59.0431 208.316C73.7314 215.792 86.5447 225.409 99.073 236.038C100.066 236.883 101.576 235.495 100.57 234.646L100.562 234.671Z" fill="#C3937C"/>
<path d="M98.149 233.134C83.2902 225.438 69.0388 216.622 55.5179 206.761C54.4553 205.984 53.3696 207.728 54.4258 208.503C67.9485 218.361 82.1999 227.178 97.0571 234.876C98.2194 235.483 99.3157 233.749 98.149 233.134Z" fill="#C3937C"/>
<path d="M125.118 258.319C122.801 240.899 121.952 223.314 122.58 205.751C122.631 204.44 120.584 204.388 120.524 205.703C119.9 223.44 120.769 241.197 123.12 258.787C123.293 260.089 125.281 259.605 125.109 258.303L125.118 258.319Z" fill="#C3937C"/>
<path d="M123.465 255.541C118.686 242.742 118.09 229.936 117.967 216.431C117.951 215.113 115.905 215.055 115.913 216.377C116.04 230.098 116.605 243.005 121.459 256.04C121.917 257.263 123.918 256.783 123.451 255.564L123.465 255.541Z" fill="#C3937C"/>
<path d="M125.309 257.32C126.489 240.071 129.082 220.727 125.555 203.576C125.258 202.277 123.296 202.762 123.561 204.058C124.95 210.88 124.866 218.148 124.736 225.133C124.551 235.866 123.988 246.595 123.252 257.3C123.154 258.652 125.207 258.664 125.306 257.354L125.309 257.32Z" fill="#C3937C"/>
<path d="M91.1498 201.071C90.1853 187.429 90.5659 173.764 90.7125 160.098C90.7235 158.782 88.6762 158.73 88.6568 160.051C88.5122 173.71 88.1297 187.381 89.0961 201.017C89.1914 202.324 91.2508 202.359 91.1498 201.071Z" fill="#C3937C"/>
<path d="M89.6318 201.78C87.9947 190.752 88.2126 179.546 86.5692 168.517C86.3758 167.215 84.3873 167.699 84.5806 169C86.2177 180.028 85.9999 191.234 87.6433 202.264C87.8366 203.565 89.8314 203.084 89.6381 201.782L89.6318 201.78Z" fill="#C3937C"/>
<path d="M94.1967 189.338C92.632 181.406 92.0797 173.503 94.2561 165.658C94.6068 164.383 92.6466 163.791 92.2959 165.066C90.0415 173.261 90.5717 181.557 92.2103 189.815C92.4682 191.109 94.4546 190.632 94.1967 189.338Z" fill="#C3937C"/>
<path d="M768.39 116.283C661.037 83.8573 548.067 133.537 497.132 229.022L500.559 230.057C550.887 136.419 661.881 87.7797 767.375 119.644C838.105 141.008 890.855 193.866 914.95 258.285C934.124 301.782 931.879 360.338 931.879 360.338C942.322 252.621 875.756 148.713 768.39 116.283Z" fill="#C3937C"/>
<path d="M506.932 222.32C515.72 203.618 539.375 189.22 559.504 186.563C572.007 184.917 584.72 187.604 596.857 190.434C608.707 193.229 620.385 196.708 631.832 200.853C633.606 201.492 634.444 198.693 632.677 198.055C619.443 193.257 605.899 189.359 592.138 186.391C580.556 183.914 568.534 182.024 556.735 184.034C536.623 187.525 513.323 201.892 504.47 220.74C503.679 222.421 506.139 224.007 506.939 222.294L506.932 222.32Z" fill="#C3937C"/>
<path d="M506.101 224.272C529.656 232.637 555.401 236.766 580.209 232.007C601.045 228.016 619.458 216.925 633.604 201.25C634.852 199.859 632.873 197.707 631.608 199.107C617.769 214.474 599.927 225.254 579.523 229.161C555.22 233.825 530.016 229.665 506.946 221.474C505.171 220.842 504.33 223.647 506.101 224.272Z" fill="#C3937C"/>
<path d="M508.001 222C534.936 196.651 573.682 187.758 609.641 193.57C610.924 193.778 611.55 191.819 610.234 191.608C573.55 185.68 534.116 194.615 506.605 220.501C506.406 220.687 506.289 220.943 506.28 221.215C506.27 221.487 506.369 221.751 506.554 221.95C506.739 222.149 506.996 222.266 507.267 222.275C507.539 222.285 507.803 222.186 508.001 222Z" fill="#C3937C"/>
<path d="M508.366 223.81L566.677 207.682C576.102 205.079 585.53 202.374 594.962 199.884C605.461 197.108 616.689 195.022 626.816 200.236C628.012 200.846 629.077 199.102 627.908 198.494C610.86 189.718 589.753 199.174 572.807 203.856L507.885 221.813C506.62 222.163 507.088 224.156 508.367 223.803L508.366 223.81Z" fill="#C3937C"/>
<path d="M510.11 223.197C532.774 233.986 561.122 230.572 584.085 222.396C592.667 219.338 600.924 215.236 609.27 211.589C617.121 208.165 625.598 205.138 632.911 200.619C634.024 199.927 633.066 198.118 631.938 198.813C625.413 202.851 617.877 205.617 610.879 208.663C603.294 211.98 595.78 215.588 588.11 218.687C564.794 228.103 534.674 232.633 511.2 221.461C510.025 220.899 508.922 222.631 510.108 223.203L510.11 223.197Z" fill="#C3937C"/>
<path d="M510.247 225.096C530.569 226.848 552.03 224.49 571.216 217.417C590.402 210.345 609.688 198.647 630.966 200.501C632.309 200.624 632.33 198.565 631.021 198.446C611.371 196.752 593.23 206.44 575.537 213.549C554.822 221.753 532.482 225.002 510.296 223.039C508.984 222.926 508.937 224.977 510.241 225.094L510.247 225.096Z" fill="#C3937C"/>
<path d="M509.385 205.793C506.807 182.067 506.957 158.122 509.833 134.428C511.366 121.885 513.864 109.295 522.143 99.3151C529.446 90.5113 539.398 84.4966 549.083 78.657C550.688 77.6844 549.315 75.1011 547.702 76.0781C538.032 81.9152 528.104 87.9438 520.631 96.5789C512.901 105.516 509.569 116.459 507.795 127.927C503.778 153.838 503.782 180.437 506.582 206.459C506.785 208.323 509.63 207.629 509.432 205.773L509.385 205.793Z" fill="#C3937C"/>
<path d="M547.757 77.4069C545.262 101.519 544.934 126.043 540.261 149.876C536.283 170.148 526.793 193.252 506.876 202.473C505.159 203.267 506.552 205.829 508.256 205.052C527.38 196.199 537.611 174.707 542.107 155.186C547.957 129.808 548.005 103.314 550.675 77.5008C550.867 75.6318 547.941 75.5631 547.749 77.4322L547.757 77.4069Z" fill="#C3937C"/>
<path d="M510.195 201.466C512.938 162.323 524.588 126.196 548.026 94.4932C548.809 93.4312 547.074 92.3475 546.286 93.4012C522.643 125.374 510.9 161.943 508.142 201.412C508.049 202.724 510.096 202.776 510.195 201.466Z" fill="#C3937C"/>
<path d="M508.935 203.489C511.139 176.775 512.338 149.71 518.63 123.533C520.644 114.891 524.394 106.748 529.654 99.6014C534.739 92.4968 540.602 84.667 547.997 79.7863C549.09 79.0668 548.128 77.2497 547.031 77.9819C540.342 82.399 535.019 89.0795 530.211 95.4044C524.726 102.623 520.045 109.988 517.716 118.795C510.422 146.368 509.227 175.134 506.89 203.43C506.773 204.776 508.832 204.79 508.945 203.478L508.935 203.489Z" fill="#C3937C"/>
<path d="M511.194 200.123C526.542 169.23 541.499 137.072 547.746 102.911C547.989 101.603 546.029 101.011 545.786 102.319C539.572 136.303 524.731 168.303 509.46 199.033C508.869 200.236 510.604 201.299 511.2 200.125L511.194 200.123Z" fill="#C3937C"/>
<path d="M566.039 149.008C571.426 118.172 586.442 77.9645 618.531 66.0935C620.277 65.4535 619.59 62.5868 617.851 63.2496C584.659 75.5267 568.843 116.08 563.225 148.158C562.906 149.989 565.7 150.86 566.026 149.004L566.039 149.008Z" fill="#C3937C"/>
<path d="M616.42 65.4765C614.171 82.0949 608.4 98.0425 599.494 112.251C590.588 126.459 578.751 138.6 564.778 147.86C563.217 148.894 564.589 151.478 566.158 150.439C580.57 140.913 592.774 128.406 601.949 113.761C611.124 99.1165 617.056 82.675 619.345 65.5452C619.592 63.6787 616.664 63.6164 616.42 65.4765Z" fill="#C3937C"/>
<path d="M569.349 145.449C578.487 115.926 590.092 85.6632 617.572 68.5598C618.687 67.8606 617.729 66.0517 616.606 66.7554C588.643 84.1549 576.698 114.792 567.389 144.857C567.31 145.117 567.338 145.398 567.467 145.638C567.595 145.877 567.813 146.056 568.073 146.134C568.333 146.213 568.613 146.185 568.853 146.056C569.092 145.928 569.271 145.709 569.349 145.449Z" fill="#C3937C"/>
<path d="M571.068 144.352C583.331 124.244 597.391 105.289 613.075 87.722C613.95 86.7431 612.562 85.2394 611.685 86.2246C595.876 103.912 581.704 122.999 569.344 143.251C568.653 144.376 570.385 145.472 571.082 144.35L571.068 144.352Z" fill="#C3937C"/>
<path d="M571.07 144.139C575.216 131.508 581.515 119.541 588.257 108.116C595.087 96.5378 602.765 82.9294 615.342 76.9273C616.536 76.3555 615.561 74.5554 614.376 75.1228C601.955 81.041 594.258 94.0978 587.421 105.494C580.219 117.506 573.499 130.181 569.124 143.523C568.71 144.78 570.638 145.362 571.078 144.113L571.07 144.139Z" fill="#C3937C"/>
<path d="M558.648 162.261C575.2 149.68 595.268 142.598 616.039 142.008C626.661 141.722 636.93 143.407 647.154 146.199C657.564 149.039 667.8 152.158 678.715 151.587C680.582 151.461 680.674 148.553 678.786 148.659C665.571 149.372 653.423 144.452 640.759 141.559C630.914 139.311 620.783 138.58 610.716 139.392C591.086 140.984 572.323 148.183 556.655 160.133C555.158 161.276 557.157 163.406 558.642 162.28L558.648 162.261Z" fill="#C3937C"/>
<path d="M559.125 162.737C579.602 170.123 601.247 177.822 623.372 175.525C643.654 173.412 662.895 164.809 678.717 152.085C680.19 150.907 678.187 148.769 676.728 149.944C660.982 162.601 641.339 171.324 621.053 172.808C599.971 174.349 579.478 166.971 559.97 159.939C558.197 159.3 557.358 162.099 559.125 162.737Z" fill="#C3937C"/>
<path d="M561.592 162.75C597.131 156.065 635.417 149.056 671.357 156.258C672.658 156.52 673.251 154.558 671.95 154.296C635.619 147.017 597.016 153.999 561.116 160.762C559.821 161.006 560.297 162.994 561.592 162.75Z" fill="#C3937C"/>
<path d="M559.753 161.047C572.35 153.263 589.487 151.697 603.954 149.989C619.161 148.187 634.469 147.395 649.773 146.941C651.082 146.901 651.141 144.854 649.821 144.884C634.343 145.347 618.86 146.169 603.48 147.995C588.811 149.732 571.608 151.312 558.782 159.235C557.671 159.921 558.629 161.73 559.755 161.041L559.753 161.047Z" fill="#C3937C"/>
<path d="M564.807 163.527C598.356 168.045 632.251 158.488 665.95 160.682C667.262 160.768 667.316 158.719 666.005 158.627C632.3 156.43 598.405 165.988 564.862 161.472C563.538 161.286 563.516 163.345 564.807 163.527Z" fill="#C3937C"/>
<path d="M585.469 169.865C606.404 168.446 627.428 168.994 648.392 169.124C649.707 169.134 649.766 167.087 648.447 167.068C627.473 166.949 606.459 166.39 585.524 167.809C584.22 167.899 584.186 169.954 585.469 169.865Z" fill="#C3937C"/>
<path d="M625.004 118.953C627.871 102.034 634.784 85.4522 644.212 71.1431C653.696 56.7403 670.685 50.9104 686.465 46.228C688.262 45.6933 687.591 42.8451 685.779 43.3824C670.515 47.9098 653.841 53.4963 643.785 66.6627C632.752 81.1017 625.221 100.301 622.202 118.107C621.897 119.942 624.692 120.807 625.004 118.953Z" fill="#C3937C"/>
<path d="M624.582 120.304C633.663 115.366 643.938 113.103 652.782 107.693C658.821 103.961 664.18 99.2265 668.63 93.6931C679.891 79.827 685.259 62.3298 687.901 44.9487C688.185 43.0937 685.257 43.0314 684.977 44.8737C682.356 62.0953 676.866 79.6525 665.36 93.099C660.679 98.6221 655.021 103.235 648.671 106.707C640.493 111.144 631.365 113.311 623.194 117.75C621.547 118.634 622.915 121.23 624.574 120.329L624.582 120.304Z" fill="#C3937C"/>
<path d="M688.57 108.957C701.923 94.8805 716.244 79.7908 735.172 73.5936C755.343 66.9843 776.695 72.4112 796.118 78.9205C797.903 79.5218 798.75 76.7178 796.965 76.1165C777.084 69.4552 755.124 64.0101 734.495 70.7435C715.019 77.107 700.319 92.331 686.583 106.81C685.288 108.173 687.273 110.327 688.57 108.957Z" fill="#C3937C"/>
<path d="M688.068 109.683C726.497 111.476 765.791 101.497 797.317 79.0616C798.831 77.9786 797.467 75.3908 795.939 76.4763C764.779 98.6569 726.124 108.531 688.121 106.764C686.244 106.673 686.16 109.625 688.051 109.692L688.068 109.683Z" fill="#C3937C"/>
<path d="M649.508 116.201C671.829 111.975 699.618 117.06 717.282 131.907C723.762 137.317 728.632 144.314 734.254 150.578C741.563 158.593 750.21 165.274 759.809 170.322C761.462 171.201 763.048 168.737 761.372 167.844C750.835 162.229 741.461 154.662 733.745 145.547C727.867 138.668 722.389 131.563 714.848 126.399C696.39 113.744 670.667 109.221 648.82 113.362C646.974 113.716 647.654 116.56 649.504 116.214L649.508 116.201Z" fill="#C3937C"/>
<path d="M646.257 116.525C648.505 122.218 654.453 126.784 658.983 130.563C668.093 138.056 677.862 144.705 688.172 150.431C709.588 162.522 735.007 173.439 760.13 171.316C761.977 171.184 762.083 168.232 760.2 168.388C735.593 170.473 710.708 159.794 689.735 147.954C680.254 142.676 671.22 136.632 662.722 129.883C657.913 126.02 651.197 121.139 648.837 115.156C648.144 113.406 645.575 114.806 646.259 116.539L646.257 116.525Z" fill="#C3937C"/>
<path d="M762.649 117.015C801.665 92.4898 848.342 109.054 884.049 131.305C885.653 132.301 887.209 129.821 885.612 128.828C849.027 106.035 801.145 89.3695 761.268 114.436C759.677 115.433 761.049 118.017 762.649 117.015Z" fill="#C3937C"/>
<path d="M761.766 116.879C784.827 126.421 808.897 133.471 833.051 139.647C850.792 144.191 871.288 144.842 885.851 131.739C887.253 130.477 885.264 128.336 883.862 129.598C867.662 144.168 845.623 140.081 826.69 134.915C804.978 128.992 783.46 122.7 762.606 114.073C760.864 113.354 760.03 116.161 761.759 116.877L761.766 116.879Z" fill="#C3937C"/>
<path d="M738.125 114.187C740.171 150.956 776.613 168.304 806.825 179.142C808.598 179.781 809.439 176.975 807.67 176.344C778.904 166.019 743.034 149.541 741.064 114.259C740.938 112.391 738.039 112.303 738.144 114.192L738.125 114.187Z" fill="#C3937C"/>
<path d="M739.414 115.06C758.776 122.918 778.278 133.415 790.469 150.987C796.567 159.785 799.93 170.422 806.978 178.567C808.218 179.991 810.352 177.997 809.118 176.575C801.538 167.862 798.078 156.2 791.15 146.973C778.54 130.172 759.346 120.023 740.278 112.268C738.539 111.563 737.706 114.364 739.433 115.065L739.414 115.06Z" fill="#C3937C"/>
<path d="M842.94 158.306C854.348 157.884 866.105 157.429 877.212 160.522C884.761 162.622 890.092 166.263 895.908 171.197C905.978 179.73 915.337 189.111 925.773 197.257C927.263 198.398 928.803 195.928 927.335 194.78C916.042 185.954 906.003 175.607 894.886 166.564C880.152 154.579 861.151 154.71 843.01 155.378C841.141 155.442 841.05 158.371 842.94 158.306Z" fill="#C3937C"/>
<path d="M842.659 159.305C865.81 180.274 894.814 193.66 925.787 197.669C927.647 197.906 927.711 194.976 925.857 194.741C895.66 190.802 867.385 177.747 844.799 157.314C843.412 156.059 841.261 158.041 842.659 159.305Z" fill="#C3937C"/>
<path d="M822.75 146.178C822.368 168.365 818.284 202.357 842.949 214.083C844.633 214.881 846.212 212.416 844.511 211.605C820.937 200.403 825.308 167.52 825.675 146.247C825.704 144.37 822.782 144.288 822.75 146.178Z" fill="#C3937C"/>
<path d="M823.742 147.12C839.395 164.101 847.065 189.169 842.454 211.951C842.081 213.779 844.877 214.644 845.255 212.797C850.069 188.978 842.283 162.922 825.882 145.128C824.604 143.74 822.463 145.732 823.742 147.12Z" fill="#C3937C"/>
<path d="M872.383 189.53C866.499 209.183 866.702 230.157 872.967 249.686C873.539 251.468 876.39 250.803 875.817 249C869.676 229.978 869.457 209.533 875.19 190.378C875.735 188.574 872.928 187.726 872.389 189.531L872.383 189.53Z" fill="#C3937C"/>
<path d="M874.138 191.807C888.19 208.539 888.016 232.095 874.14 248.908C872.942 250.362 875.43 251.901 876.615 250.47C883.722 241.946 887.589 231.182 887.532 220.083C887.475 208.984 883.498 198.265 876.303 189.823C875.084 188.377 872.948 190.377 874.157 191.813L874.138 191.807Z" fill="#C3937C"/>
<path d="M897.442 216.217C916.495 218.449 934.608 229.66 944.756 246.001C945.743 247.597 948.325 246.222 947.334 244.617C936.597 227.325 917.677 215.629 897.512 213.289C895.646 213.071 895.582 216.001 897.442 216.217Z" fill="#C3937C"/>
<path d="M896.448 217.153C902.081 225.241 909.351 232.052 917.787 237.144C926.222 242.236 935.634 245.495 945.411 246.71C947.271 246.947 947.335 244.017 945.481 243.781C936.213 242.611 927.293 239.514 919.293 234.69C911.293 229.866 904.39 223.422 899.026 215.77C897.954 214.245 895.366 215.618 896.448 217.153Z" fill="#C3937C"/>
<path d="M908.685 246.246C902.548 261.356 900.47 278.742 907.658 293.85C908.468 295.552 911.01 294.171 910.235 292.466C903.381 278.06 905.653 261.445 911.486 247.092C912.191 245.351 909.388 244.511 908.685 246.246Z" fill="#C3937C"/>
<path d="M909.176 247.383C916.087 261.053 916.471 278.353 908.18 291.528C907.173 293.123 909.65 294.679 910.648 293.088C919.51 279.03 919.123 260.596 911.76 246.001C910.891 244.309 908.339 245.7 909.183 247.384L909.176 247.383Z" fill="#C3937C"/>
<path d="M626.133 117.042C644.685 93.0575 664.492 70.071 685.469 48.1788C686.376 47.2304 684.988 45.7267 684.079 46.6815C662.991 68.7076 643.08 91.8333 624.43 115.962C623.626 117.003 625.362 118.087 626.171 117.054L626.133 117.042Z" fill="#C3937C"/>
<path d="M625.256 117.523C632.641 104.883 639.776 92.0435 647.627 79.6892C654.937 68.187 664.513 52.5685 678.525 48.8509C679.791 48.5426 679.326 46.5167 678.051 46.8567C665.246 50.2551 656.403 62.9453 649.35 73.3442C639.957 87.1734 631.963 102.012 623.528 116.435C622.86 117.573 624.592 118.67 625.268 117.527L625.256 117.523Z" fill="#C3937C"/>
<path d="M628.241 111.891C633.016 90.8029 647.347 73.8786 659.442 56.5626C660.198 55.4784 658.464 54.3883 657.704 55.4643C645.49 72.9448 631.086 90.0196 626.274 111.297C625.98 112.59 627.94 113.182 628.228 111.887L628.241 111.891Z" fill="#C3937C"/>
<path d="M627.889 117.214C649.804 99.1628 669.295 78.352 685.878 55.2992C686.649 54.2334 684.909 53.1415 684.138 54.2073C667.651 77.1007 648.275 97.7654 626.494 115.687C625.475 116.526 626.871 118.025 627.89 117.186L627.889 117.214Z" fill="#C3937C"/>
<path d="M633.537 114.32C650.225 105.346 665.05 93.2687 677.218 78.7364C678.051 77.7378 676.665 76.2279 675.822 77.2372C663.776 91.6449 649.093 103.62 632.563 112.52C632.444 112.584 632.339 112.67 632.254 112.775C632.169 112.879 632.106 112.999 632.067 113.128C632.028 113.258 632.015 113.393 632.029 113.527C632.043 113.661 632.083 113.791 632.146 113.91C632.21 114.028 632.297 114.133 632.401 114.218C632.506 114.303 632.626 114.367 632.755 114.406C632.884 114.444 633.019 114.457 633.153 114.444C633.287 114.43 633.417 114.39 633.535 114.326L633.537 114.32Z" fill="#C3937C"/>
<path d="M691.845 109.194C707.929 102.476 723.988 95.6812 740.119 89.0604C755.494 82.7499 773.285 74.0337 790.33 76.7023C791.646 76.9133 791.667 74.8546 790.378 74.6449C774.211 72.1101 757.803 79.6968 743.153 85.6184C725.648 92.674 708.291 100.112 690.876 107.375C689.659 107.884 690.64 109.686 691.846 109.187L691.845 109.194Z" fill="#C3937C"/>
<path d="M699.685 106.285C711.84 100.999 723.432 94.4987 734.284 86.8835C745.493 78.9902 757.485 69.9449 772.05 71.9338C773.374 72.1196 773.395 70.0609 772.099 69.8765C759.142 68.1111 747.586 74.9394 737.429 82.1353C725.135 90.8546 712.494 98.4398 698.721 104.474C697.513 105 698.486 106.807 699.687 106.279L699.685 106.285Z" fill="#C3937C"/>
<path d="M693.81 107.964L721.997 85.6657C730.518 78.9288 739.044 71.786 750.143 70.1516C751.448 69.9656 750.968 67.9695 749.667 68.1637C739.761 69.6196 731.773 75.3915 724.075 81.4376C713.5 89.7436 702.979 98.1212 692.428 106.462C691.394 107.282 692.792 108.775 693.823 107.968L693.81 107.964Z" fill="#C3937C"/>
<path d="M699.084 107.955C732.038 101.331 763.609 89.6698 795.038 77.9517C796.258 77.4983 795.779 75.4958 794.555 75.9618C763.128 87.6736 731.568 99.3245 698.604 105.958C697.312 106.217 697.792 108.213 699.084 107.955Z" fill="#C3937C"/>
<path d="M648.742 117.71C665.608 121.61 681.069 129.885 695.028 139.979C707.719 149.179 719.11 159.962 732.74 167.857C733.879 168.519 734.976 166.785 733.832 166.115C719.652 157.895 707.876 146.533 694.55 137.107C680.841 127.44 665.758 119.514 649.344 115.717C648.055 115.417 647.462 117.379 648.752 117.679L648.742 117.71Z" fill="#C3937C"/>
<path d="M649.367 116.601C670.73 120.871 690.42 131.204 708.685 142.806C724.36 152.748 739.546 164.422 757.733 169.363C759.009 169.707 759.601 167.745 758.325 167.401C739.031 162.153 723.24 149.261 706.461 138.998C688.927 128.267 670.257 118.711 649.956 114.651C648.655 114.39 648.062 116.352 649.363 116.613L649.367 116.601Z" fill="#C3937C"/>
<path d="M652.973 115.88C681.325 121.156 706.716 134.406 732.019 147.699C733.181 148.306 734.284 146.574 733.117 145.959C707.666 132.587 682.102 119.222 653.567 113.912C652.262 113.663 651.67 115.625 652.975 115.874L652.973 115.88Z" fill="#C3937C"/>
<path d="M661.756 114.03C682.981 120.013 703.858 126.919 723.292 137.507C724.44 138.137 725.543 136.405 724.384 135.765C704.795 125.096 683.753 118.098 662.351 112.061C661.086 111.679 660.488 113.661 661.758 114.024L661.756 114.03Z" fill="#C3937C"/>
<path d="M649.027 118.867C668.784 129.186 687.279 140.415 703.419 155.969C704.364 156.883 705.867 155.492 704.922 154.578C688.664 138.914 670.029 127.531 650.124 117.133C648.962 116.527 647.861 118.252 649.026 118.873L649.027 118.867Z" fill="#C3937C"/>
<path d="M740.769 116.857C756.996 137.505 776.922 154.949 799.529 168.298C800.666 168.966 801.754 167.236 800.621 166.556C778.169 153.296 758.381 135.968 742.267 115.459C741.45 114.417 739.956 115.824 740.771 116.851L740.769 116.857Z" fill="#C3937C"/>
<path d="M740.486 116.924C755.821 129.605 772.367 140.743 789.885 150.176C791.04 150.807 792.136 149.074 790.984 148.435C773.615 139.092 757.204 128.067 741.987 115.519C740.99 114.686 739.48 116.074 740.49 116.911L740.486 116.924Z" fill="#C3937C"/>
<path d="M742.694 116.513C754.362 126.861 768.676 134.39 782.588 141.237C783.759 141.812 784.86 140.086 783.686 139.497C769.954 132.738 755.709 125.327 744.187 115.134C743.208 114.264 741.705 115.655 742.688 116.532L742.694 116.513Z" fill="#C3937C"/>
<path d="M739.022 117.179C752.188 137.553 768.537 156.022 787.955 170.638C789.005 171.432 790.091 169.688 789.047 168.896C769.94 154.484 753.819 136.243 740.835 116.179C740.125 115.081 738.317 116.041 739.032 117.147L739.022 117.179Z" fill="#C3937C"/>
<path d="M765.696 117.735C785.784 117.703 805.94 116.146 826.001 117.826C845.549 119.469 864.459 125.098 883.017 131.207C884.281 131.589 884.855 129.69 883.607 129.251C865.566 123.305 847.166 117.795 828.191 115.966C807.406 113.964 786.549 115.648 765.751 115.679C764.432 115.682 764.373 117.729 765.696 117.735Z" fill="#C3937C"/>
<path d="M768.256 117.23C783.59 116.834 798.584 113.268 813.885 112.364C829.901 111.388 845.949 113.635 861.079 118.972C862.324 119.418 862.917 117.456 861.671 117.01C847.028 111.85 831.532 109.543 816.019 110.211C800.01 110.901 784.35 114.749 768.333 115.147C767.026 115.18 766.958 117.232 768.278 117.202L768.256 117.23Z" fill="#C3937C"/>
<path d="M764.566 117.269C775.483 113.858 786.613 111.175 797.884 109.236C809.896 107.111 822.024 105.657 834.064 108.423C835.356 108.716 835.948 106.754 834.657 106.461C823.551 103.914 812.391 104.791 801.241 106.597C788.661 108.582 776.242 111.484 764.084 115.279C762.839 115.677 763.305 117.676 764.564 117.276L764.566 117.269Z" fill="#C3937C"/>
<path d="M805.722 116.957C831.306 120.295 856.513 126.058 881.004 134.17C882.269 134.552 882.842 132.653 881.597 132.208C856.922 124.062 831.53 118.277 805.762 114.931C804.436 114.752 804.414 116.811 805.713 116.989L805.722 116.957Z" fill="#C3937C"/>
<path d="M785.735 117.475C802.32 122.394 819.097 126.633 835.955 130.489C849.909 133.681 864.235 137.649 878.663 135.708C879.964 135.534 879.481 133.545 878.18 133.718C862.803 135.787 847.163 131.007 832.316 127.552C816.884 123.955 801.526 120.02 786.328 115.513C786.068 115.434 785.788 115.462 785.548 115.591C785.309 115.719 785.13 115.937 785.052 116.198C784.973 116.458 785.001 116.739 785.129 116.978C785.257 117.218 785.475 117.396 785.735 117.475Z" fill="#C3937C"/>
<path d="M773.809 118.424C805.162 127.355 836.325 139.11 869.274 140.062C869.409 140.066 869.544 140.043 869.67 139.994C869.796 139.946 869.911 139.873 870.009 139.78C870.107 139.687 870.185 139.576 870.24 139.453C870.295 139.329 870.325 139.196 870.329 139.061C870.332 138.926 870.309 138.792 870.261 138.666C870.213 138.54 870.14 138.425 870.048 138.327C869.955 138.229 869.844 138.15 869.72 138.095C869.597 138.04 869.464 138.01 869.33 138.007C836.557 137.087 805.58 125.334 774.41 116.457C773.145 116.075 772.547 118.057 773.817 118.42L773.809 118.424Z" fill="#C3937C"/>
<path d="M845.406 159.645C870.113 167.508 893.938 177.15 916.782 189.492C917.97 190.127 919.035 188.384 917.88 187.752C894.888 175.33 870.883 165.6 846 157.676C844.736 157.294 844.149 159.238 845.408 159.639L845.406 159.645Z" fill="#C3937C"/>
<path d="M848.047 159.649C868.374 161.091 886.161 169.317 904.167 178.236C905.37 178.821 906.439 177.085 905.259 176.494C886.935 167.416 868.787 159.061 848.101 157.599C846.783 157.505 846.739 159.55 848.045 159.655L848.047 159.649Z" fill="#C3937C"/>
<path d="M847.197 160.455C870.988 175.349 896.497 187.454 923.593 195.017C924.857 195.399 925.458 193.411 924.185 193.055C897.254 185.542 871.952 173.527 848.306 158.725C848.075 158.58 847.796 158.533 847.53 158.594C847.265 158.655 847.034 158.819 846.89 159.05C846.745 159.281 846.698 159.56 846.758 159.826C846.819 160.092 846.983 160.322 847.214 160.467L847.197 160.455Z" fill="#C3937C"/>
<path d="M853.663 160.495C866.475 160.753 879.743 162.764 891.566 167.869C892.789 168.39 893.381 166.428 892.159 165.906C880.207 160.749 866.664 158.71 853.706 158.436C853.571 158.433 853.437 158.456 853.311 158.505C853.185 158.554 853.07 158.627 852.972 158.72C852.775 158.909 852.66 159.168 852.654 159.441C852.647 159.714 852.749 159.978 852.937 160.175C853.126 160.373 853.384 160.487 853.657 160.493L853.663 160.495Z" fill="#C3937C"/>
<path d="M824.747 149.938C830.31 157.834 832.798 169.222 835.746 178.353C838.6 187.179 843.884 198.603 842.773 207.993C842.612 209.326 844.669 209.346 844.827 208.047C845.979 198.269 840.698 187.018 837.745 177.879C834.719 168.504 832.282 157.131 826.57 148.948C825.817 147.878 824.002 148.863 824.761 149.914L824.747 149.938Z" fill="#C3937C"/>
<path d="M824.516 150.11C828.485 170.731 825.707 196.421 843.226 211.818C844.208 212.681 845.711 211.291 844.723 210.426C827.514 195.282 830.42 169.948 826.517 149.63C826.266 148.338 824.273 148.813 824.522 150.111L824.516 150.11Z" fill="#C3937C"/>
<path d="M826.763 152.446C828.471 162.348 830.453 172.209 833.121 181.925C835.695 191.177 839.6 199.471 843.935 207.985C844.537 209.168 846.336 208.192 845.739 207.017C841.209 198.051 837.219 189.331 834.623 179.602C832.2 170.492 830.36 161.234 828.763 151.945C828.535 150.646 826.546 151.13 826.769 152.427L826.763 152.446Z" fill="#C3937C"/>
<path d="M898.748 216.667C911.379 227.389 924.335 237.173 939.175 244.764C940.341 245.358 941.437 243.624 940.267 243.021C925.579 235.546 912.765 225.929 900.237 215.3C899.244 214.454 897.734 215.843 898.74 216.692L898.748 216.667Z" fill="#C3937C"/>
<path d="M901.161 218.204C916.02 225.9 930.271 234.716 943.792 244.577C944.855 245.354 945.941 243.609 944.884 242.835C931.362 232.976 917.11 224.16 902.253 216.462C901.091 215.855 899.994 217.589 901.161 218.204Z" fill="#C3937C"/>
<path d="M874.193 193.019C876.509 210.438 877.358 228.023 876.73 245.587C876.679 246.898 878.727 246.95 878.786 245.635C879.41 227.898 878.541 210.141 876.19 192.551C876.017 191.249 874.029 191.733 874.201 193.035L874.193 193.019Z" fill="#C3937C"/>
<path d="M875.845 195.797C880.624 208.596 881.22 221.402 881.343 234.907C881.359 236.224 883.405 236.283 883.397 234.961C883.27 221.24 882.705 208.333 877.851 195.298C877.393 194.075 875.392 194.555 875.859 195.773L875.845 195.797Z" fill="#C3937C"/>
<path d="M874.001 194.018C872.821 211.267 870.228 230.61 873.755 247.762C874.052 249.061 876.014 248.576 875.749 247.28C874.36 240.458 874.444 233.19 874.574 226.204C874.759 215.472 875.323 204.743 876.058 194.038C876.156 192.686 874.103 192.674 874.004 193.984L874.001 194.018Z" fill="#C3937C"/>
<path d="M908.16 250.267C909.125 263.909 908.744 277.573 908.598 291.24C908.587 292.555 910.634 292.607 910.653 291.287C910.798 277.627 911.18 263.957 910.214 250.32C910.119 249.014 908.059 248.979 908.16 250.267Z" fill="#C3937C"/>
<path d="M909.678 249.558C911.315 260.585 911.097 271.792 912.741 282.821C912.934 284.123 914.923 283.639 914.729 282.337C913.092 271.31 913.31 260.103 911.667 249.074C911.473 247.772 909.479 248.254 909.672 249.556L909.678 249.558Z" fill="#C3937C"/>
<path d="M905.113 262C906.678 269.932 907.23 277.835 905.054 285.68C904.703 286.955 906.663 287.547 907.014 286.272C909.269 278.077 908.738 269.781 907.1 261.522C906.842 260.229 904.855 260.706 905.113 262Z" fill="#C3937C"/>
</svg>
