<svg width="57" height="40" viewBox="0 0 57 40" fill="none" xmlns="http://www.w3.org/2000/svg">
<mask id="path-1-outside-1_180_3375" maskUnits="userSpaceOnUse" x="-1" y="-1" width="59" height="42" fill="black">
<rect fill="white" x="-1" y="-1" width="59" height="42"/>
<path d="M18.4 27.88C18.4 26.6 18.0933 25.5067 17.48 24.6C16.8933 23.6933 16.12 22.9867 15.16 22.48C14.2267 21.9733 13.1867 21.52 12.04 21.12C10.8933 20.72 9.74667 20.32 8.6 19.92C7.45333 19.4933 6.4 19 5.44 18.44C4.50667 17.8533 3.73333 17.0533 3.12 16.04C2.53333 15.0267 2.24 13.8 2.24 12.36C2.24 9.88 3.14667 7.93333 4.96 6.52C6.8 5.10667 9.14667 4.4 12 4.4C14.88 4.4 17.1733 5.05333 18.88 6.36C20.5867 7.66667 21.44 9.09333 21.44 10.64C21.44 11.7067 21.2267 12.5067 20.8 13.04C20.4 13.5467 19.92 13.8 19.36 13.8C18.32 13.8 17.6533 13.6 17.36 13.2L17.24 13C17.5067 12.6533 17.64 11.9867 17.64 11C17.64 9.48 17 8.29333 15.72 7.44C14.44 6.56 12.9467 6.12 11.24 6.12C9.56 6.12 8.22667 6.57333 7.24 7.48C6.25333 8.38667 5.76 9.49333 5.76 10.8C5.76 12.1067 6.05333 13.2 6.64 14.08C7.25333 14.9333 8.04 15.6 9 16.08C9.96 16.56 11.0133 16.9867 12.16 17.36C13.3333 17.7333 14.4933 18.1467 15.64 18.6C16.8133 19.0267 17.88 19.56 18.84 20.2C19.8 20.8133 20.5733 21.6933 21.16 22.84C21.7733 23.9867 22.08 25.3733 22.08 27C22.08 29.8533 21.0667 32.04 19.04 33.56C17.0133 35.08 14.4667 35.84 11.4 35.84C8.36 35.84 5.70667 35.0667 3.44 33.52C1.2 31.9467 0.08 29.9867 0.08 27.64C0.08 26.5467 0.293333 25.6933 0.72 25.08C1.14667 24.44 1.65333 24.12 2.24 24.12C3.28 24.12 3.94667 24.2933 4.24 24.64L4.36 24.84C4.12 25.5067 4 26.32 4 27.28C4 29.0933 4.73333 30.68 6.2 32.04C7.69333 33.4 9.64 34.08 12.04 34.08C13.7733 34.08 15.2667 33.48 16.52 32.28C17.7733 31.0533 18.4 29.5867 18.4 27.88ZM56.1509 25.2C56.4176 25.4133 56.5509 25.6933 56.5509 26.04C56.5509 26.3867 56.4309 26.68 56.1909 26.92H50.5109L52.7909 34.52C52.8443 34.7067 52.8709 34.9467 52.8709 35.24C52.8709 35.5333 52.6843 35.8933 52.3109 36.32C51.9376 36.7467 51.5509 36.96 51.1509 36.96C50.4043 36.96 49.8176 36.7733 49.3909 36.4L46.5509 26.92H36.3509L34.3509 32.36C33.6576 34.2 32.6576 35.7867 31.3509 37.12C30.0443 38.4533 28.3509 39.12 26.2709 39.12C24.6976 39.12 23.4709 38.7067 22.5909 37.88C21.6843 37.0533 21.2309 35.8533 21.2309 34.28C21.2309 32.7067 21.6176 31.2933 22.3909 30.04C23.1376 28.76 24.1376 27.76 25.3909 27.04C27.8976 25.6 30.6976 24.88 33.7909 24.88L39.6309 8.4C39.8976 7.62667 40.1776 7.05333 40.4709 6.68C39.6443 3.90666 39.2309 2.38666 39.2309 2.12C39.2309 1.82667 39.4176 1.50667 39.7909 1.16C40.1909 0.786665 40.5909 0.599998 40.9909 0.599998C41.7643 0.599998 42.3643 0.786665 42.7909 1.16L49.8709 24.88L55.1109 24.84C55.5643 24.84 55.9109 24.96 56.1509 25.2ZM26.2709 37.44C28.2709 37.44 30.0043 35.4267 31.4709 31.4L33.0309 26.96C30.0976 26.96 27.7643 27.6533 26.0309 29.04C24.3243 30.4267 23.4709 32.2533 23.4709 34.52C23.4709 35.4533 23.7243 36.1733 24.2309 36.68C24.7643 37.1867 25.4443 37.44 26.2709 37.44ZM41.9909 9.76L37.1109 24.88H45.9109L41.9909 9.76Z"/>
</mask>
<path d="M18.4 27.88C18.4 26.6 18.0933 25.5067 17.48 24.6C16.8933 23.6933 16.12 22.9867 15.16 22.48C14.2267 21.9733 13.1867 21.52 12.04 21.12C10.8933 20.72 9.74667 20.32 8.6 19.92C7.45333 19.4933 6.4 19 5.44 18.44C4.50667 17.8533 3.73333 17.0533 3.12 16.04C2.53333 15.0267 2.24 13.8 2.24 12.36C2.24 9.88 3.14667 7.93333 4.96 6.52C6.8 5.10667 9.14667 4.4 12 4.4C14.88 4.4 17.1733 5.05333 18.88 6.36C20.5867 7.66667 21.44 9.09333 21.44 10.64C21.44 11.7067 21.2267 12.5067 20.8 13.04C20.4 13.5467 19.92 13.8 19.36 13.8C18.32 13.8 17.6533 13.6 17.36 13.2L17.24 13C17.5067 12.6533 17.64 11.9867 17.64 11C17.64 9.48 17 8.29333 15.72 7.44C14.44 6.56 12.9467 6.12 11.24 6.12C9.56 6.12 8.22667 6.57333 7.24 7.48C6.25333 8.38667 5.76 9.49333 5.76 10.8C5.76 12.1067 6.05333 13.2 6.64 14.08C7.25333 14.9333 8.04 15.6 9 16.08C9.96 16.56 11.0133 16.9867 12.16 17.36C13.3333 17.7333 14.4933 18.1467 15.64 18.6C16.8133 19.0267 17.88 19.56 18.84 20.2C19.8 20.8133 20.5733 21.6933 21.16 22.84C21.7733 23.9867 22.08 25.3733 22.08 27C22.08 29.8533 21.0667 32.04 19.04 33.56C17.0133 35.08 14.4667 35.84 11.4 35.84C8.36 35.84 5.70667 35.0667 3.44 33.52C1.2 31.9467 0.08 29.9867 0.08 27.64C0.08 26.5467 0.293333 25.6933 0.72 25.08C1.14667 24.44 1.65333 24.12 2.24 24.12C3.28 24.12 3.94667 24.2933 4.24 24.64L4.36 24.84C4.12 25.5067 4 26.32 4 27.28C4 29.0933 4.73333 30.68 6.2 32.04C7.69333 33.4 9.64 34.08 12.04 34.08C13.7733 34.08 15.2667 33.48 16.52 32.28C17.7733 31.0533 18.4 29.5867 18.4 27.88ZM56.1509 25.2C56.4176 25.4133 56.5509 25.6933 56.5509 26.04C56.5509 26.3867 56.4309 26.68 56.1909 26.92H50.5109L52.7909 34.52C52.8443 34.7067 52.8709 34.9467 52.8709 35.24C52.8709 35.5333 52.6843 35.8933 52.3109 36.32C51.9376 36.7467 51.5509 36.96 51.1509 36.96C50.4043 36.96 49.8176 36.7733 49.3909 36.4L46.5509 26.92H36.3509L34.3509 32.36C33.6576 34.2 32.6576 35.7867 31.3509 37.12C30.0443 38.4533 28.3509 39.12 26.2709 39.12C24.6976 39.12 23.4709 38.7067 22.5909 37.88C21.6843 37.0533 21.2309 35.8533 21.2309 34.28C21.2309 32.7067 21.6176 31.2933 22.3909 30.04C23.1376 28.76 24.1376 27.76 25.3909 27.04C27.8976 25.6 30.6976 24.88 33.7909 24.88L39.6309 8.4C39.8976 7.62667 40.1776 7.05333 40.4709 6.68C39.6443 3.90666 39.2309 2.38666 39.2309 2.12C39.2309 1.82667 39.4176 1.50667 39.7909 1.16C40.1909 0.786665 40.5909 0.599998 40.9909 0.599998C41.7643 0.599998 42.3643 0.786665 42.7909 1.16L49.8709 24.88L55.1109 24.84C55.5643 24.84 55.9109 24.96 56.1509 25.2ZM26.2709 37.44C28.2709 37.44 30.0043 35.4267 31.4709 31.4L33.0309 26.96C30.0976 26.96 27.7643 27.6533 26.0309 29.04C24.3243 30.4267 23.4709 32.2533 23.4709 34.52C23.4709 35.4533 23.7243 36.1733 24.2309 36.68C24.7643 37.1867 25.4443 37.44 26.2709 37.44ZM41.9909 9.76L37.1109 24.88H45.9109L41.9909 9.76Z" fill="#C66D3C"/>
<path d="M17.48 24.6L16.6404 25.1432L16.646 25.1518L16.6517 25.1603L17.48 24.6ZM15.16 22.48L14.6829 23.3589L14.6932 23.3644L15.16 22.48ZM12.04 21.12L12.3694 20.1758V20.1758L12.04 21.12ZM8.6 19.92L8.25127 20.8572L8.26091 20.8608L8.27063 20.8642L8.6 19.92ZM5.44 18.44L4.90783 19.2866L4.92184 19.2954L4.93613 19.3038L5.44 18.44ZM3.12 16.04L2.25457 16.541L2.25946 16.5495L2.2645 16.5578L3.12 16.04ZM4.96 6.52L4.35083 5.72693L4.34526 5.73127L4.96 6.52ZM18.88 6.36L19.4879 5.56599V5.56599L18.88 6.36ZM20.8 13.04L20.0191 12.4153L20.0151 12.4204L20.8 13.04ZM17.36 13.2L16.5025 13.7145L16.5263 13.7541L16.5536 13.7914L17.36 13.2ZM17.24 13L16.4474 12.3903L16.032 12.9303L16.3825 13.5145L17.24 13ZM15.72 7.44L15.1535 8.26404L15.1594 8.26809L15.1653 8.27205L15.72 7.44ZM7.24 7.48L6.56338 6.74367L6.56337 6.74367L7.24 7.48ZM6.64 14.08L5.80795 14.6347L5.81771 14.6493L5.82798 14.6636L6.64 14.08ZM12.16 17.36L11.8504 18.3109L11.8568 18.3129L12.16 17.36ZM15.64 18.6L15.2723 19.53L15.2852 19.5351L15.2983 19.5398L15.64 18.6ZM18.84 20.2L18.2853 21.032L18.2934 21.0375L18.3016 21.0427L18.84 20.2ZM21.16 22.84L20.2698 23.2955L20.2739 23.3036L20.2782 23.3117L21.16 22.84ZM19.04 33.56L18.44 32.76L19.04 33.56ZM3.44 33.52L2.86518 34.3384L2.87636 34.346L3.44 33.52ZM0.72 25.08L1.54091 25.6511L1.54656 25.6429L1.55205 25.6347L0.72 25.08ZM4.24 24.64L5.09749 24.1255L5.05577 24.056L5.00339 23.9941L4.24 24.64ZM4.36 24.84L5.30089 25.1787L5.46159 24.7323L5.21749 24.3255L4.36 24.84ZM6.2 32.04L5.52003 32.7733L5.52667 32.7793L6.2 32.04ZM16.52 32.28L17.2116 33.0024L17.2195 32.9947L16.52 32.28ZM19.4 27.88C19.4 26.4349 19.0515 25.1383 18.3083 24.0397L16.6517 25.1603C17.1352 25.875 17.4 26.7651 17.4 27.88H19.4ZM18.3196 24.0567C17.6394 23.0056 16.7374 22.1818 15.6268 21.5956L14.6932 23.3644C15.5026 23.7916 16.1473 24.3811 16.6404 25.1432L18.3196 24.0567ZM15.6371 21.6011C14.6502 21.0654 13.5599 20.5911 12.3694 20.1758L11.7106 22.0642C12.8135 22.4489 13.8031 22.8813 14.6829 23.3589L15.6371 21.6011ZM12.3694 20.1758C11.2227 19.7758 10.076 19.3758 8.92937 18.9758L8.27063 20.8642C9.41729 21.2642 10.564 21.6642 11.7106 22.0642L12.3694 20.1758ZM8.94873 18.9828C7.85048 18.5741 6.84969 18.1046 5.94387 17.5762L4.93613 19.3038C5.95031 19.8954 7.05619 20.4125 8.25127 20.8572L8.94873 18.9828ZM5.97217 17.5934C5.18045 17.0957 4.51429 16.4124 3.9755 15.5222L2.2645 16.5578C2.95237 17.6943 3.83288 18.611 4.90783 19.2866L5.97217 17.5934ZM3.98543 15.539C3.50507 14.7093 3.24 13.6642 3.24 12.36H1.24C1.24 13.9358 1.5616 15.3441 2.25457 16.541L3.98543 15.539ZM3.24 12.36C3.24 10.1603 4.02575 8.51603 5.57474 7.30873L4.34526 5.73127C2.26758 7.35064 1.24 9.59972 1.24 12.36H3.24ZM5.56916 7.31305C7.19738 6.06239 9.31516 5.4 12 5.4V3.4C8.97818 3.4 6.40262 4.15095 4.35085 5.72695L5.56916 7.31305ZM12 5.4C14.7345 5.4 16.7909 6.01996 18.2721 7.154L19.4879 5.56599C17.5558 4.08671 15.0255 3.4 12 3.4V5.4ZM18.2721 7.154C19.8341 8.34992 20.44 9.51425 20.44 10.64H22.44C22.44 8.67241 21.3392 6.98341 19.4879 5.56599L18.2721 7.154ZM20.44 10.64C20.44 11.5998 20.2437 12.1346 20.0191 12.4153L21.5809 13.6647C22.2097 12.8787 22.44 11.8135 22.44 10.64H20.44ZM20.0151 12.4204C19.7721 12.7282 19.5648 12.8 19.36 12.8V14.8C20.2752 14.8 21.0279 14.3651 21.5849 13.6596L20.0151 12.4204ZM19.36 12.8C18.8943 12.8 18.5737 12.7541 18.3673 12.6922C18.1603 12.6301 18.1417 12.575 18.1664 12.6086L16.5536 13.7914C16.8716 14.225 17.333 14.4699 17.7927 14.6078C18.253 14.7459 18.7857 14.8 19.36 14.8V12.8ZM18.2175 12.6855L18.0975 12.4855L16.3825 13.5145L16.5025 13.7145L18.2175 12.6855ZM18.0326 13.6097C18.2971 13.2658 18.4389 12.8447 18.5206 12.4361C18.6045 12.0165 18.64 11.5325 18.64 11H16.64C16.64 11.4541 16.6088 11.7969 16.5594 12.0439C16.535 12.1658 16.5084 12.2532 16.4848 12.3128C16.4611 12.3729 16.4452 12.3932 16.4474 12.3903L18.0326 13.6097ZM18.64 11C18.64 9.1408 17.8288 7.64404 16.2747 6.60795L15.1653 8.27205C16.1712 8.94262 16.64 9.8192 16.64 11H18.64ZM16.2865 6.61596C14.8234 5.61007 13.1281 5.12 11.24 5.12V7.12C12.7652 7.12 14.0566 7.50993 15.1535 8.26404L16.2865 6.61596ZM11.24 5.12C9.37564 5.12 7.77816 5.62738 6.56338 6.74367L7.91663 8.21633C8.67517 7.51928 9.74436 7.12 11.24 7.12V5.12ZM6.56337 6.74367C5.37659 7.83423 4.76 9.20545 4.76 10.8H6.76C6.76 9.78121 7.13008 8.9391 7.91663 8.21633L6.56337 6.74367ZM4.76 10.8C4.76 12.2573 5.08844 13.5554 5.80795 14.6347L7.47205 13.5253C7.01823 12.8446 6.76 11.956 6.76 10.8H4.76ZM5.82798 14.6636C6.53801 15.6515 7.45101 16.4235 8.55279 16.9744L9.44721 15.1856C8.62899 14.7765 7.96866 14.2152 7.45202 13.4964L5.82798 14.6636ZM8.55279 16.9744C9.56224 17.4792 10.6622 17.924 11.8504 18.3109L12.4696 16.4091C11.3645 16.0493 10.3578 15.6408 9.44721 15.1856L8.55279 16.9744ZM11.8568 18.3129C13.0084 18.6793 14.1469 19.085 15.2723 19.53L16.0077 17.67C14.8398 17.2083 13.6583 16.7873 12.4632 16.4071L11.8568 18.3129ZM15.2983 19.5398C16.4027 19.9414 17.3969 20.4398 18.2853 21.032L19.3947 19.3679C18.3631 18.6802 17.224 18.1119 15.9817 17.6602L15.2983 19.5398ZM18.3016 21.0427C19.0933 21.5485 19.7532 22.2858 20.2698 23.2955L22.0502 22.3845C21.3935 21.1009 20.5067 20.0782 19.3784 19.3573L18.3016 21.0427ZM20.2782 23.3117C20.7968 24.2813 21.08 25.4974 21.08 27H23.08C23.08 25.2493 22.7498 23.6921 22.0418 22.3683L20.2782 23.3117ZM21.08 27C21.08 29.5841 20.1805 31.4546 18.44 32.76L19.64 34.36C21.9528 32.6254 23.08 30.1225 23.08 27H21.08ZM18.44 32.76C16.6204 34.1247 14.297 34.84 11.4 34.84V36.84C14.6363 36.84 17.4063 36.0353 19.64 34.36L18.44 32.76ZM11.4 34.84C8.5385 34.84 6.08646 34.1152 4.00364 32.694L2.87636 34.346C5.32688 36.0181 8.1815 36.84 11.4 36.84V34.84ZM4.01477 32.7017C1.99039 31.2798 1.08 29.6033 1.08 27.64H-0.92C-0.92 30.3701 0.409608 32.6135 2.86523 34.3383L4.01477 32.7017ZM1.08 27.64C1.08 26.6608 1.27341 26.0356 1.54091 25.6511L-0.100905 24.5089C-0.686745 25.3511 -0.92 26.4325 -0.92 27.64H1.08ZM1.55205 25.6347C1.85758 25.1764 2.08905 25.12 2.24 25.12V23.12C1.21762 23.12 0.435752 23.7036 -0.11205 24.5253L1.55205 25.6347ZM2.24 25.12C2.71354 25.12 3.04755 25.1604 3.26837 25.2178C3.49899 25.2778 3.51593 25.3324 3.47661 25.2859L5.00339 23.9941C4.67074 23.6009 4.20768 23.3955 3.77163 23.2822C3.32578 23.1663 2.80646 23.12 2.24 23.12V25.12ZM3.38251 25.1545L3.50251 25.3545L5.21749 24.3255L5.09749 24.1255L3.38251 25.1545ZM3.41911 24.5013C3.12885 25.3076 3 26.2428 3 27.28H5C5 26.3972 5.11115 25.7058 5.30089 25.1787L3.41911 24.5013ZM3 27.28C3 29.402 3.87268 31.2457 5.52006 32.7733L6.87994 31.3067C5.59398 30.1143 5 28.7847 5 27.28H3ZM5.52667 32.7793C7.23782 34.3377 9.44056 35.08 12.04 35.08V33.08C9.83944 33.08 8.14885 32.4623 6.87333 31.3007L5.52667 32.7793ZM12.04 35.08C14.0313 35.08 15.7723 34.3803 17.2116 33.0023L15.8284 31.5577C14.761 32.5797 13.5153 33.08 12.04 33.08V35.08ZM17.2195 32.9947C18.6591 31.5857 19.4 29.8638 19.4 27.88H17.4C17.4 29.3095 16.8876 30.521 15.8205 31.5653L17.2195 32.9947ZM56.1509 25.2L55.4438 25.9071L55.483 25.9463L55.5262 25.9809L56.1509 25.2ZM56.1909 26.92V27.92H56.6052L56.898 27.6271L56.1909 26.92ZM50.5109 26.92V25.92H49.1669L49.5531 27.2073L50.5109 26.92ZM52.7909 34.52L53.7525 34.2453L53.7488 34.2327L52.7909 34.52ZM49.3909 36.4L48.433 36.687L48.5157 36.9629L48.7324 37.1526L49.3909 36.4ZM46.5509 26.92L47.5089 26.633L47.2953 25.92H46.5509V26.92ZM36.3509 26.92V25.92H35.6531L35.4124 26.5749L36.3509 26.92ZM34.3509 32.36L35.2867 32.7126L35.2895 32.7051L34.3509 32.36ZM31.3509 37.12L32.0652 37.8199L31.3509 37.12ZM22.5909 37.88L23.2756 37.1512L23.2702 37.1461L23.2647 37.141L22.5909 37.88ZM22.3909 30.04L23.242 30.5651L23.2485 30.5546L23.2547 30.5439L22.3909 30.04ZM25.3909 27.04L24.8928 26.1729L25.3909 27.04ZM33.7909 24.88V25.88H34.4975L34.7335 25.214L33.7909 24.88ZM39.6309 8.4L40.5735 8.73403L40.5763 8.72599L39.6309 8.4ZM40.4709 6.68L41.2573 7.29782L41.5772 6.89062L41.4293 6.39434L40.4709 6.68ZM39.7909 1.16L40.4714 1.89279L40.4733 1.89105L39.7909 1.16ZM42.7909 1.16L43.7492 0.873985L43.6666 0.597456L43.4494 0.407422L42.7909 1.16ZM49.8709 24.88L48.9127 25.166L49.1275 25.8857L49.8786 25.88L49.8709 24.88ZM55.1109 24.84V23.84L55.1033 23.84L55.1109 24.84ZM31.4709 31.4L32.4106 31.7423L32.4144 31.7315L31.4709 31.4ZM33.0309 26.96L33.9744 27.2915L34.4422 25.96H33.0309V26.96ZM26.0309 29.04L25.4062 28.2591L25.4003 28.2639L26.0309 29.04ZM24.2309 36.68L23.5238 37.3871L23.5329 37.3962L23.5422 37.405L24.2309 36.68ZM41.9909 9.76L42.9589 9.50904L42.0957 6.17956L41.0393 9.45285L41.9909 9.76ZM37.1109 24.88L36.1593 24.5728L35.7374 25.88H37.1109V24.88ZM45.9109 24.88V25.88H47.2033L46.8789 24.629L45.9109 24.88ZM55.5262 25.9809C55.5411 25.9928 55.5476 26.0003 55.5492 26.0023C55.5506 26.004 55.5495 26.003 55.5481 25.9999C55.5466 25.9969 55.5469 25.9964 55.5478 26.0006C55.5488 26.0052 55.5509 26.0176 55.5509 26.04H57.5509C57.5509 25.3949 57.2837 24.8256 56.7756 24.4191L55.5262 25.9809ZM55.5509 26.04C55.5509 26.1278 55.5318 26.1649 55.4838 26.2129L56.898 27.6271C57.33 27.1951 57.5509 26.6455 57.5509 26.04H55.5509ZM56.1909 25.92H50.5109V27.92H56.1909V25.92ZM49.5531 27.2073L51.8331 34.8073L53.7488 34.2327L51.4688 26.6327L49.5531 27.2073ZM51.8294 34.7947C51.8478 34.8589 51.8709 34.9973 51.8709 35.24H53.8709C53.8709 34.896 53.8408 34.5544 53.7525 34.2453L51.8294 34.7947ZM51.8709 35.24C51.8709 35.1771 51.8895 35.1804 51.8432 35.2697C51.7982 35.3565 51.7114 35.4866 51.5584 35.6615L53.0635 36.9785C53.4674 36.5169 53.8709 35.9178 53.8709 35.24H51.8709ZM51.5584 35.6615C51.2931 35.9646 51.1581 35.96 51.1509 35.96V37.96C51.9438 37.96 52.5821 37.5287 53.0635 36.9785L51.5584 35.6615ZM51.1509 35.96C50.5684 35.96 50.2425 35.8164 50.0494 35.6474L48.7324 37.1526C49.3927 37.7303 50.2402 37.96 51.1509 37.96V35.96ZM50.3489 36.113L47.5089 26.633L45.593 27.207L48.433 36.687L50.3489 36.113ZM46.5509 25.92H36.3509V27.92H46.5509V25.92ZM35.4124 26.5749L33.4124 32.0149L35.2895 32.7051L37.2895 27.2651L35.4124 26.5749ZM33.4152 32.0074C32.7681 33.7245 31.8411 35.1911 30.6367 36.4201L32.0652 37.8199C33.4741 36.3822 34.5471 34.6755 35.2867 32.7126L33.4152 32.0074ZM30.6367 36.4201C29.5405 37.5387 28.1159 38.12 26.2709 38.12V40.12C28.586 40.12 30.5481 39.368 32.0652 37.8199L30.6367 36.4201ZM26.2709 38.12C24.8725 38.12 23.9194 37.7559 23.2756 37.1512L21.9063 38.6088C23.0225 39.6574 24.5227 40.12 26.2709 40.12V38.12ZM23.2647 37.141C22.6209 36.5541 22.2309 35.6565 22.2309 34.28H20.2309C20.2309 36.0502 20.7476 37.5526 21.9172 38.619L23.2647 37.141ZM22.2309 34.28C22.2309 32.8789 22.5727 31.6497 23.242 30.5651L21.5399 29.5149C20.6625 30.9369 20.2309 32.5344 20.2309 34.28H22.2309ZM23.2547 30.5439C23.9157 29.4108 24.7912 28.5378 25.8891 27.9071L24.8928 26.1729C23.484 26.9822 22.3596 28.1092 21.5272 29.5361L23.2547 30.5439ZM25.8891 27.9071C28.2335 26.5603 30.8597 25.88 33.7909 25.88V23.88C30.5355 23.88 27.5617 24.6397 24.8928 26.1729L25.8891 27.9071ZM34.7335 25.214L40.5735 8.73401L38.6884 8.06598L32.8484 24.546L34.7335 25.214ZM40.5763 8.72599C40.8289 7.99341 41.0652 7.54221 41.2573 7.29782L39.6846 6.06218C39.29 6.56445 38.9663 7.25992 38.6856 8.07401L40.5763 8.72599ZM41.4293 6.39434C41.0167 5.01017 40.7094 3.94591 40.5059 3.1976C40.4039 2.82253 40.3302 2.53486 40.2827 2.32961C40.224 2.07588 40.2309 2.04985 40.2309 2.12H38.2309C38.2309 2.32348 38.2895 2.58745 38.3342 2.78039C38.39 3.0218 38.4713 3.33747 38.576 3.7224C38.7858 4.49409 39.0985 5.5765 39.5126 6.96566L41.4293 6.39434ZM40.2309 2.12C40.2309 2.19124 40.2075 2.21057 40.2347 2.16387C40.2639 2.11388 40.3318 2.02241 40.4714 1.89279L39.1105 0.427205C38.6743 0.832194 38.2309 1.40174 38.2309 2.12H40.2309ZM40.4733 1.89105C40.7571 1.62613 40.925 1.6 40.9909 1.6V-0.400002C40.2568 -0.400002 39.6248 -0.0528049 39.1086 0.428943L40.4733 1.89105ZM40.9909 1.6C41.6107 1.6 41.9452 1.74876 42.1324 1.91258L43.4494 0.407422C42.7833 -0.175427 41.9179 -0.400002 40.9909 -0.400002V1.6ZM41.8327 1.44601L48.9127 25.166L50.8292 24.594L43.7492 0.873985L41.8327 1.44601ZM49.8786 25.88L55.1186 25.84L55.1033 23.84L49.8633 23.88L49.8786 25.88ZM55.1109 25.84C55.2515 25.84 55.3372 25.8588 55.3838 25.875C55.4259 25.8895 55.4393 25.9026 55.4438 25.9071L56.858 24.4929C56.3742 24.0091 55.7376 23.84 55.1109 23.84V25.84ZM26.2709 38.44C27.6501 38.44 28.8383 37.733 29.8288 36.5824C30.8077 35.4454 31.6581 33.8082 32.4105 31.7422L30.5313 31.0578C29.8171 33.0185 29.0675 34.4013 28.3131 35.2776C27.5703 36.1404 26.8918 36.44 26.2709 36.44V38.44ZM32.4144 31.7315L33.9744 27.2915L32.0875 26.6285L30.5275 31.0685L32.4144 31.7315ZM33.0309 25.96C29.9438 25.96 27.3667 26.6908 25.4062 28.2591L26.6556 29.8209C28.1618 28.6159 30.2514 27.96 33.0309 27.96V25.96ZM25.4003 28.2639C23.4518 29.8471 22.4709 31.9629 22.4709 34.52H24.4709C24.4709 32.5437 25.1968 31.0062 26.6615 29.8161L25.4003 28.2639ZM22.4709 34.52C22.4709 35.635 22.7778 36.6411 23.5238 37.3871L24.938 35.9729C24.6707 35.7056 24.4709 35.2717 24.4709 34.52H22.4709ZM23.5422 37.405C24.2849 38.1106 25.2223 38.44 26.2709 38.44V36.44C25.6663 36.44 25.2437 36.2628 24.9197 35.955L23.5422 37.405ZM41.0393 9.45285L36.1593 24.5728L38.0626 25.1871L42.9426 10.0671L41.0393 9.45285ZM37.1109 25.88H45.9109V23.88H37.1109V25.88ZM46.8789 24.629L42.9589 9.50904L41.0229 10.011L44.9429 25.131L46.8789 24.629Z" fill="#641515" mask="url(#path-1-outside-1_180_3375)"/>
</svg>
