<svg width="61" height="33" viewBox="0 0 61 33" fill="none" xmlns="http://www.w3.org/2000/svg">
<path d="M9.76 31C7.17333 31 4.98667 30.3867 3.2 29.16C1.2 27.7467 0.2 25.8133 0.2 23.36C0.2 21.4933 0.92 19.8667 2.36 18.48C3.82667 17.0667 5.46667 16.36 7.28 16.36C8.45333 16.36 9.45333 16.72 10.28 17.44C11.1333 18.1333 11.56 19.08 11.56 20.28C11.56 20.7067 11.3333 20.92 10.88 20.92C10.5867 20.92 10.36 20.6533 10.2 20.12C9.96 19.3467 9.72 18.84 9.48 18.6C9.05333 18.04 8.34667 17.76 7.36 17.76C5.86667 17.76 4.52 18.32 3.32 19.44C2.14667 20.56 1.56 21.8533 1.56 23.32C1.56 25.3467 2.4 26.9467 4.08 28.12C5.57333 29.1333 7.42667 29.64 9.64 29.64C11.1333 29.64 12.52 29.4533 13.8 29.08C15.1067 28.7333 16.3067 28.1867 17.4 27.44C19.7733 25.7867 20.96 23.6933 20.96 21.16C20.96 18.5733 19.72 16.6667 17.24 15.44L10.4 12.92C7.94667 11.8267 6.72 10.1467 6.72 7.88C6.72 5.66667 7.72 3.90667 9.72 2.6C11.4533 1.48 13.4533 0.919999 15.72 0.919999C17.4533 0.919999 18.92 1.36 20.12 2.24C21.48 3.22667 22.16 4.58667 22.16 6.32C22.16 7.41333 21.7467 8.33333 20.92 9.08C20.1467 9.82667 19.2 10.2 18.08 10.2C17.4133 10.2 16.8533 10 16.4 9.6C15.9467 9.2 15.72 8.66667 15.72 8C15.72 7.54666 15.9467 7.32 16.4 7.32C16.72 7.32 16.96 7.62666 17.12 8.24C17.2267 8.66667 17.56 8.88 18.12 8.88C18.7333 8.88 19.32 8.64 19.88 8.16C20.4667 7.65333 20.76 7.04 20.76 6.32C20.76 4.96 20.2267 3.92 19.16 3.2C18.2267 2.58666 17.0267 2.28 15.56 2.28C13.7467 2.28 12.0933 2.74667 10.6 3.68C8.92 4.74667 8.08 6.10666 8.08 7.76C8.08 9.65333 9.30667 11.08 11.76 12.04L18.64 14.68C21.0933 16.0933 22.32 18.24 22.32 21.12C22.32 24.1067 21.0133 26.5467 18.4 28.44C16.0267 30.1467 13.1467 31 9.76 31ZM30.8834 32.12C28.3234 32.12 26.3368 31.3333 24.9234 29.76C23.6701 28.3467 23.0434 26.5733 23.0434 24.44C23.0434 22.1733 23.6968 20.2267 25.0034 18.6C26.4434 16.8133 28.2968 15.92 30.5634 15.92C31.7368 15.92 32.7501 16.1867 33.6034 16.72C34.5368 17.36 35.0034 18.28 35.0034 19.48C35.0034 19.96 34.7634 20.2 34.2834 20.2C33.8834 20.2 33.6834 19.9867 33.6834 19.56C33.6834 18.04 32.6301 17.28 30.5234 17.28C28.6834 17.28 27.1634 18.0267 25.9634 19.52C24.8701 20.9333 24.3234 22.56 24.3234 24.4C24.3234 26.16 24.8434 27.6267 25.8834 28.8C27.0568 30.08 28.6968 30.72 30.8034 30.72C35.3901 30.72 40.7634 26.44 46.9234 17.88C45.4834 17.88 44.4568 18.16 43.8434 18.72C43.6568 18.88 43.4568 18.96 43.2434 18.96C42.8168 18.96 42.6034 18.76 42.6034 18.36C42.6034 18.2267 42.6434 18.1067 42.7234 18C43.4701 16.9067 45.1901 16.4133 47.8834 16.52C50.6301 12.6 53.1101 8.37333 55.3234 3.84C55.9368 2.58666 56.4168 1.70666 56.7634 1.2C56.8701 1.01333 57.0434 0.919999 57.2834 0.919999C57.7901 0.919999 58.0434 1.16 58.0434 1.64C58.0434 1.77333 58.0168 2.01333 57.9634 2.36C57.9368 2.70667 57.8568 3.16 57.7234 3.72L57.2434 5.84C56.9501 7.62667 56.6701 9.45333 56.4034 11.32C56.1634 13.1867 55.9368 15.0933 55.7234 17.04C57.0834 17.04 57.9234 16.96 58.2434 16.8C58.5901 16.64 58.7768 16.4267 58.8034 16.16C58.8568 15.8933 58.9368 15.7333 59.0434 15.68C59.1501 15.6267 59.2834 15.6 59.4434 15.6C59.8968 15.6 60.1234 15.8133 60.1234 16.24C60.1234 17.76 58.6301 18.48 55.6434 18.4C55.5901 19.1733 55.5368 19.92 55.4834 20.64C55.4568 21.3333 55.4434 21.9867 55.4434 22.6C55.4434 25.2133 55.6701 26.9067 56.1234 27.68C56.4434 28.2133 56.8834 28.56 57.4434 28.72C57.9234 28.8267 58.1634 29.04 58.1634 29.36C58.1634 29.8133 57.8568 30.04 57.2434 30.04C56.9234 30.04 56.5101 29.8667 56.0034 29.52C54.7234 28.72 54.0834 26.3333 54.0834 22.36C54.0834 21.7467 54.0968 21.1067 54.1234 20.44C54.1768 19.7733 54.2301 19.08 54.2834 18.36C53.6434 18.3067 52.8434 18.24 51.8834 18.16C50.9234 18.08 49.8168 18 48.5634 17.92C41.8168 27.3867 35.9234 32.12 30.8834 32.12ZM54.3634 17C54.4701 15.8267 54.6434 14.32 54.8834 12.48C55.1234 10.6133 55.4568 8.4 55.8834 5.84C54.7901 7.89333 53.7101 9.82667 52.6434 11.64C51.5768 13.4267 50.5101 15.08 49.4434 16.6C49.9768 16.6267 50.6568 16.68 51.4834 16.76C52.3101 16.8133 53.2701 16.8933 54.3634 17Z" fill="#152FA1"/>
</svg>
